#define close2_width 14
#define close2_height 4
static unsigned char close2_bits[] = {
   0xff, 0x1f, 0x01, 0x30, 0xff, 0x3f, 0xfe, 0x3f };
