#define max_toggled2_width 7
#define max_toggled2_height 10
static unsigned char max_toggled2_bits[] = {
   0x08, 0x1c, 0x3e, 0x7f, 0x00, 0x00, 0x7f, 0x3e, 0x1c, 0x08 };
