#define shade_width 7
#define shade_height 10
static unsigned char shade_bits[] = {
   0x00, 0x00, 0x7f, 0x7f, 0x00, 0x00, 0x08, 0x1c, 0x3e, 0x7f };
